<?xml version="1.0" standalone="no"?>
<!DOCTYPE svg PUBLIC "-//W3C//DTD SVG 20010904//EN"
 "http://www.w3.org/TR/2001/REC-SVG-20010904/DTD/svg10.dtd">
<svg version="1.0" xmlns="http://www.w3.org/2000/svg"
 width="70.000000pt" height="70.000000pt" viewBox="0 0 70.000000 70.000000"
 preserveAspectRatio="xMidYMid meet">

<g transform="translate(0.000000,70.000000) scale(0.100000,-0.100000)"
fill="#000000" stroke="none">
<path d="M535 568 c-16 -6 -41 -19 -55 -28 -34 -23 -117 -35 -136 -19 -11 9
-14 9 -14 -2 0 -9 -3 -10 -8 -3 -15 24 -54 34 -126 34 l-76 0 0 -170 c0 -163
1 -170 20 -170 11 0 25 -9 32 -20 7 -11 20 -20 30 -20 9 0 19 -4 23 -9 3 -6
27 -9 53 -8 33 2 53 -3 66 -15 30 -27 41 -22 60 25 13 32 19 39 26 27 7 -11
11 -9 19 13 6 15 24 32 43 40 46 19 57 35 73 113 15 72 20 225 8 223 -5 0 -21
-5 -38 -11z m-104 -190 c15 -23 10 -31 -20 -25 -15 3 -32 2 -37 -2 -5 -5 -30
-12 -56 -15 -44 -7 -48 -6 -48 14 0 25 22 34 96 38 39 2 60 -1 65 -10z"/>
</g>
</svg>
