<?xml version="1.0" standalone="no"?>
<!DOCTYPE svg PUBLIC "-//W3C//DTD SVG 20010904//EN"
 "http://www.w3.org/TR/2001/REC-SVG-20010904/DTD/svg10.dtd">
<svg version="1.0" xmlns="http://www.w3.org/2000/svg"
 width="28.000000pt" height="28.000000pt" viewBox="0 0 28.000000 28.000000"
 preserveAspectRatio="xMidYMid meet">

<g transform="translate(0.000000,28.000000) scale(0.100000,-0.100000)"
fill="#000000" stroke="none">
<path d="M4 267 c-2 -7 -3 -69 -2 -138 l3 -124 135 0 135 0 0 135 0 135 -133
3 c-103 2 -134 0 -138 -11z m170 -50 c26 -36 26 -89 -2 -126 -12 -17 -22 -37
-22 -46 0 -8 -4 -15 -10 -15 -5 0 -10 8 -10 19 0 10 -7 24 -14 31 -40 33 -39
108 1 153 20 22 31 18 57 -16z"/>
</g>
</svg>
