<?xml version="1.0" standalone="no"?>
<!DOCTYPE svg PUBLIC "-//W3C//DTD SVG 20010904//EN"
 "http://www.w3.org/TR/2001/REC-SVG-20010904/DTD/svg10.dtd">
<svg version="1.0" xmlns="http://www.w3.org/2000/svg"
 width="96.000000pt" height="96.000000pt" viewBox="0 0 96.000000 96.000000"
 preserveAspectRatio="xMidYMid meet">

<g transform="translate(0.000000,96.000000) scale(0.100000,-0.100000)"
fill="#000000" stroke="none">
<path d="M22 937 c-22 -23 -22 -25 -22 -458 l0 -436 23 -21 c23 -22 25 -22
458 -22 l436 0 21 23 c22 23 22 25 22 458 l0 436 -23 21 c-23 22 -25 22 -458
22 l-436 0 -21 -23z m499 -110 c14 -13 43 -47 65 -77 124 -169 100 -346 -68
-512 -23 -23 -28 -36 -28 -78 0 -27 -4 -50 -10 -50 -5 0 -10 23 -10 50 0 42
-5 55 -28 78 -97 96 -146 194 -146 297 0 97 38 177 128 273 46 48 60 51 97 19z"/>
<path d="M400 724 c0 -5 18 -28 40 -49 l40 -39 40 39 c22 21 40 44 40 49 0 5
-15 -4 -33 -22 -18 -18 -39 -32 -47 -32 -8 0 -29 14 -47 32 -18 18 -33 27 -33
22z"/>
<path d="M550 559 c-57 -62 -80 -63 -132 -7 -21 23 -40 39 -43 37 -2 -3 20
-30 50 -59 l55 -55 62 62 c34 34 60 64 58 67 -3 2 -25 -18 -50 -45z"/>
<path d="M370 424 c0 -5 18 -28 40 -49 22 -21 40 -35 40 -29 0 5 -18 28 -40
49 -22 21 -40 35 -40 29z"/>
<path d="M545 390 c-21 -22 -36 -42 -34 -45 3 -2 23 13 44 35 21 22 36 42 34
45 -3 2 -23 -13 -44 -35z"/>
<path d="M466 341 c-3 -5 0 -14 8 -20 10 -9 15 -8 19 3 9 22 -15 37 -27 17z"/>
</g>
</svg>
